<svg width="25" height="24" viewBox="0 0 25 24" fill="none" xmlns="http://www.w3.org/2000/svg">
<path d="M13.814 12.0705L8.86396 7.12049C8.68181 6.93189 8.58101 6.67929 8.58329 6.41709C8.58557 6.1549 8.69074 5.90408 8.87615 5.71867C9.06155 5.53327 9.31237 5.4281 9.57456 5.42582C9.83676 5.42354 10.0894 5.52434 10.278 5.70649L15.935 11.3635C16.1224 11.551 16.2278 11.8053 16.2278 12.0705C16.2278 12.3357 16.1224 12.59 15.935 12.7775L10.278 18.4345C10.0894 18.6167 9.83676 18.7174 9.57456 18.7152C9.31237 18.7129 9.06155 18.6077 8.87615 18.4223C8.69074 18.2369 8.58557 17.9861 8.58329 17.7239C8.58101 17.4617 8.68181 17.2091 8.86396 17.0205L13.814 12.0705Z" fill="#2C2C2C"/>
</svg>
