<svg width="25" height="24" viewBox="0 0 25 24" fill="none" xmlns="http://www.w3.org/2000/svg">
<path d="M11.2575 12.0002L16.2075 16.9502C16.303 17.0424 16.3792 17.1528 16.4316 17.2748C16.484 17.3968 16.5116 17.528 16.5128 17.6608C16.5139 17.7936 16.4886 17.9252 16.4384 18.0481C16.3881 18.171 16.3138 18.2827 16.2199 18.3766C16.126 18.4705 16.0144 18.5447 15.8915 18.595C15.7686 18.6453 15.6369 18.6706 15.5041 18.6694C15.3714 18.6683 15.2401 18.6407 15.1181 18.5883C14.9961 18.5359 14.8858 18.4597 14.7935 18.3642L9.13654 12.7072C8.94907 12.5197 8.84375 12.2653 8.84375 12.0002C8.84375 11.735 8.94907 11.4807 9.13654 11.2932L14.7935 5.63618C14.9821 5.45402 15.2347 5.35323 15.4969 5.35551C15.7591 5.35778 16.0099 5.46295 16.1954 5.64836C16.3808 5.83377 16.4859 6.08458 16.4882 6.34678C16.4905 6.60898 16.3897 6.86158 16.2075 7.05018L11.2575 12.0002Z" fill="#697077"/>
</svg>
