<svg width="21" height="21" viewBox="0 0 21 21" fill="none" xmlns="http://www.w3.org/2000/svg">
<path d="M9.625 3.49971H3.5C3.03587 3.49971 2.59075 3.68408 2.26256 4.01227C1.93437 4.34046 1.75 4.78558 1.75 5.24971V17.4997C1.75 17.9638 1.93437 18.409 2.26256 18.7371C2.59075 19.0653 3.03587 19.2497 3.5 19.2497H15.75C16.2141 19.2497 16.6592 19.0653 16.9874 18.7371C17.3156 18.409 17.5 17.9638 17.5 17.4997V11.3747M16.1875 2.18721C16.5356 1.83911 17.0077 1.64355 17.5 1.64355C17.9923 1.64355 18.4644 1.83911 18.8125 2.18721C19.1606 2.53531 19.3562 3.00743 19.3562 3.49971C19.3562 3.99199 19.1606 4.46411 18.8125 4.81221L10.5 13.1247L7 13.9997L7.875 10.4997L16.1875 2.18721Z" stroke="white" stroke-width="1.5" stroke-linecap="round" stroke-linejoin="round"/>
</svg>
