<svg width="20" height="20" viewBox="0 0 20 20" fill="none" xmlns="http://www.w3.org/2000/svg">
<path d="M9.24606 3.17007H4.50731C2.93703 3.17007 1.66406 4.44299 1.66406 6.01322V15.4905C1.66406 17.0607 2.93703 18.3337 4.50731 18.3337H13.9848C15.5551 18.3337 16.828 17.0607 16.828 15.4905L16.828 10.7519M6.40281 13.595L9.85102 12.9002C10.0341 12.8633 10.2022 12.7732 10.3342 12.6411L18.0533 4.91796C18.4234 4.54768 18.4232 3.94746 18.0528 3.57749L16.4176 1.94419C16.0473 1.57437 15.4474 1.57462 15.0774 1.94476L7.35748 9.66871C7.22573 9.80052 7.13577 9.96826 7.09885 10.1509L6.40281 13.595Z" stroke="black" stroke-linecap="round" stroke-linejoin="round"/>
</svg>
