<svg width="20" height="20" viewBox="0 0 20 20" fill="none" xmlns="http://www.w3.org/2000/svg">
<path d="M9.99966 14.0005L9.99966 11.1721M9.99966 11.1721L9.99966 8.34366M9.99966 11.1721L7.17124 11.1721M9.99966 11.1721L12.8281 11.1721M2.00045 14.618L2.00052 7.01439C2.00053 6.25279 2.00024 5.16801 2 4.38256C1.99983 3.83013 2.44761 3.38281 3.00004 3.38281H7.76522L10.0694 5.84418H16.9996C17.5519 5.84418 17.9997 6.29191 17.9996 6.84421L17.9994 14.6181C17.9994 15.7226 17.1039 16.618 15.9994 16.618L4.00044 16.618C2.89587 16.618 2.00043 15.7226 2.00045 14.618Z" stroke="white" stroke-width="2" stroke-linecap="round" stroke-linejoin="round"/>
</svg>
