<svg width="48" height="48" viewBox="0 0 48 48" fill="none" xmlns="http://www.w3.org/2000/svg">
<path d="M22 8.00045H8C6.93913 8.00045 5.92172 8.42188 5.17157 9.17203C4.42143 9.92217 4 10.9396 4 12.0005V40.0005C4 41.0613 4.42143 42.0787 5.17157 42.8289C5.92172 43.579 6.93913 44.0005 8 44.0005H36C37.0609 44.0005 38.0783 43.579 38.8284 42.8289C39.5786 42.0787 40 41.0613 40 40.0005V26.0005M37 5.00045C37.7956 4.2048 38.8748 3.75781 40 3.75781C41.1252 3.75781 42.2044 4.2048 43 5.00045C43.7956 5.7961 44.2426 6.87523 44.2426 8.00045C44.2426 9.12567 43.7956 10.2048 43 11.0005L24 30.0005L16 32.0005L18 24.0005L37 5.00045Z" stroke="#757575" stroke-width="4" stroke-linecap="round" stroke-linejoin="round"/>
</svg>
