<svg width="24" height="24" viewBox="0 0 24 24" fill="none" xmlns="http://www.w3.org/2000/svg">
<path d="M10.5005 16.4995C11.2884 16.4995 12.0687 16.3443 12.7966 16.0428C13.5246 15.7413 14.186 15.2993 14.7431 14.7422C15.3003 14.185 15.7423 13.5236 16.0438 12.7956C16.3453 12.0677 16.5005 11.2875 16.5005 10.4995C16.5005 9.7116 16.3453 8.93138 16.0438 8.20343C15.7423 7.47547 15.3003 6.81404 14.7431 6.25689C14.186 5.69973 13.5246 5.25778 12.7966 4.95625C12.0687 4.65472 11.2884 4.49953 10.5005 4.49953C8.9092 4.49953 7.38308 5.13167 6.25786 6.25689C5.13264 7.3821 4.5005 8.90823 4.5005 10.4995C4.5005 12.0908 5.13264 13.6169 6.25786 14.7422C7.38308 15.8674 8.9092 16.4995 10.5005 16.4995ZM16.8205 15.4055L20.4005 18.9855C20.4959 19.0778 20.572 19.1882 20.6244 19.3103C20.6767 19.4323 20.7042 19.5636 20.7052 19.6963C20.7063 19.8291 20.6809 19.9608 20.6305 20.0836C20.5802 20.2065 20.5058 20.3181 20.4119 20.4119C20.3179 20.5057 20.2062 20.5799 20.0833 20.6301C19.9604 20.6803 19.8287 20.7055 19.6959 20.7043C19.5631 20.703 19.4319 20.6753 19.3099 20.6229C19.188 20.5704 19.0777 20.4941 18.9855 20.3985L15.4055 16.8185C13.798 18.0664 11.7753 18.6547 9.74926 18.4637C7.72322 18.2727 5.84611 17.3168 4.50005 15.7906C3.154 14.2643 2.44019 12.2825 2.50393 10.2485C2.56767 8.21443 3.40417 6.28115 4.84315 4.84217C6.28213 3.4032 8.2154 2.56669 10.2494 2.50295C12.2834 2.43921 14.2653 3.15302 15.7916 4.49908C17.3178 5.84513 18.2737 7.72224 18.4647 9.74828C18.6557 11.7743 18.0674 13.797 16.8195 15.4045L16.8205 15.4055Z" fill="#697077"/>
</svg>
