<svg width="21" height="21" viewBox="0 0 21 21" fill="none" xmlns="http://www.w3.org/2000/svg">
<path d="M2.625 5.25H4.375M4.375 5.25H18.375M4.375 5.25V17.5C4.375 17.9641 4.55937 18.4092 4.88756 18.7374C5.21575 19.0656 5.66087 19.25 6.125 19.25H14.875C15.3391 19.25 15.7842 19.0656 16.1124 18.7374C16.4406 18.4092 16.625 17.9641 16.625 17.5V5.25M7 5.25V3.5C7 3.03587 7.18437 2.59075 7.51256 2.26256C7.84075 1.93437 8.28587 1.75 8.75 1.75H12.25C12.7141 1.75 13.1592 1.93437 13.4874 2.26256C13.8156 2.59075 14 3.03587 14 3.5V5.25M8.75 9.625V14.875M12.25 9.625V14.875" stroke="#1E1E1E" stroke-width="1.5" stroke-linecap="round" stroke-linejoin="round"/>
</svg>
